<svg xmlns="http://www.w3.org/2000/svg" width="36in" height="24in" viewBox="0 0 3456 2304"><rect width="3456" height="2304" fill="white"/><rect x="96" y="96" width="3264" height="2112" fill="none" stroke="#222" stroke-width="2"/><text x="175" y="180" font-family="sans-serif" font-size="38">PONDY FLATS · DESIGN 4 · A-101</text><text x="175" y="225" font-family="sans-serif" font-size="24">0.25″ = 1′-0″ · 36 × 24 inch proof · NOT FOR CONSTRUCTION</text><g fill="#e9ca91" stroke="#334155" stroke-width="2"><polygon points="896.00,770.00 1868.00,770.00 1868.00,1400.00 1340.00,1400.00 1340.00,1178.00 896.00,1178.00" class="home"/><polygon points="896.00,770.00 1340.00,770.00 1340.00,1178.00 896.00,1178.00" class="room"/><polygon points="1340.00,770.00 1868.00,770.00 1868.00,1010.00 1340.00,1010.00" class="room"/><polygon points="1340.00,1010.00 1544.00,1010.00 1544.00,1178.00 1340.00,1178.00" class="room"/><polygon points="1544.00,1010.00 1868.00,1010.00 1868.00,1178.00 1544.00,1178.00" class="room"/><polygon points="1340.00,1178.00 1556.00,1178.00 1556.00,1400.00 1340.00,1400.00" class="room"/><polygon points="1556.00,1178.00 1700.00,1178.00 1700.00,1400.00 1556.00,1400.00" class="room"/><polygon points="1700.00,1178.00 1868.00,1178.00 1868.00,1400.00 1700.00,1400.00" class="room"/><polygon points="1868.00,770.00 2672.00,770.00 2672.00,1400.00 1868.00,1400.00" class="home"/><polygon points="1868.00,770.00 2252.00,770.00 2252.00,1082.00 1868.00,1082.00" class="room"/><polygon points="2252.00,770.00 2672.00,770.00 2672.00,1082.00 2252.00,1082.00" class="room"/><polygon points="1868.00,1082.00 2060.00,1082.00 2060.00,1400.00 1868.00,1400.00" class="room"/><polygon points="2060.00,1082.00 2324.00,1082.00 2324.00,1400.00 2060.00,1400.00" class="room"/><polygon points="2324.00,1082.00 2516.00,1082.00 2516.00,1250.00 2324.00,1250.00" class="room"/><polygon points="2516.00,1082.00 2672.00,1082.00 2672.00,1250.00 2516.00,1250.00" class="room"/><polygon points="2324.00,1250.00 2672.00,1250.00 2672.00,1400.00 2324.00,1400.00" class="room"/></g><text x="1118.00" y="974.00" font-family="sans-serif" font-size="17.0" fill="#1f3045" text-anchor="middle" stroke="none">LIVING</text><text x="1604.00" y="890.00" font-family="sans-serif" font-size="17.0" fill="#1f3045" text-anchor="middle" stroke="none">KITCHEN</text><text x="1442.00" y="1094.00" font-family="sans-serif" font-size="17.0" fill="#1f3045" text-anchor="middle" stroke="none">STAIR</text><text x="1706.00" y="1094.00" font-family="sans-serif" font-size="17.0" fill="#1f3045" text-anchor="middle" stroke="none">FLEX</text><text x="1448.00" y="1289.00" font-family="sans-serif" font-size="17.0" fill="#1f3045" text-anchor="middle" stroke="none">MUD</text><text x="1628.00" y="1289.00" font-family="sans-serif" font-size="17.0" fill="#1f3045" text-anchor="middle" stroke="none">POWDER</text><text x="1784.00" y="1289.00" font-family="sans-serif" font-size="17.0" fill="#1f3045" text-anchor="middle" stroke="none">ENTRY</text><text x="2060.00" y="926.00" font-family="sans-serif" font-size="17.0" fill="#1f3045" text-anchor="middle" stroke="none">LIVING</text><text x="2462.00" y="926.00" font-family="sans-serif" font-size="17.0" fill="#1f3045" text-anchor="middle" stroke="none">KITCHEN</text><text x="1964.00" y="1241.00" font-family="sans-serif" font-size="17.0" fill="#1f3045" text-anchor="middle" stroke="none">STAIR</text><text x="2192.00" y="1241.00" font-family="sans-serif" font-size="17.0" fill="#1f3045" text-anchor="middle" stroke="none">FLEX</text><text x="2420.00" y="1166.00" font-family="sans-serif" font-size="17.0" fill="#1f3045" text-anchor="middle" stroke="none">MUD</text><text x="2594.00" y="1166.00" font-family="sans-serif" font-size="17.0" fill="#1f3045" text-anchor="middle" stroke="none">POWDER</text><text x="2498.00" y="1325.00" font-family="sans-serif" font-size="17.0" fill="#1f3045" text-anchor="middle" stroke="none">ENTRY</text><g class="dimension-layer" fill="none" stroke="#21354a" stroke-width="1" vector-effect="non-scaling-stroke"><style>.dimension-layer text{font:12px system-ui,sans-serif;fill:#21354a;stroke:none}.dimension-layer .witness{opacity:.65}</style><g data-dimension-id="home-a.width" data-geometry-ref="d4.plan.shell-a" data-value-ft="33.5" data-collision-lane="0"><line class="witness" x1="1868.00" y1="773.00" x2="1868.00" y2="738.00"/><line class="witness" x1="2672.00" y1="773.00" x2="2672.00" y2="738.00"/><line class="dimension-line" x1="1868.00" y1="743.00" x2="2672.00" y2="743.00"/><line class="tick" x1="1864.00" y1="747.00" x2="1872.00" y2="739.00"/><line class="tick" x1="2668.00" y1="747.00" x2="2676.00" y2="739.00"/><rect x="2244.50" y="734.00" width="51.00" height="18" rx="3" fill="#fff"/><text x="2270.00" y="747.00" text-anchor="middle">33.5′</text></g><g data-dimension-id="home-a.depth" data-geometry-ref="d4.plan.shell-a" data-value-ft="26.25" data-collision-lane="0"><line class="witness" x1="2669.00" y1="770.00" x2="2704.00" y2="770.00"/><line class="witness" x1="2669.00" y1="1400.00" x2="2704.00" y2="1400.00"/><line class="dimension-line" x1="2699.00" y1="770.00" x2="2699.00" y2="1400.00"/><line class="tick" x1="2695.00" y1="774.00" x2="2703.00" y2="766.00"/><line class="tick" x1="2695.00" y1="1404.00" x2="2703.00" y2="1396.00"/><rect x="2669.60" y="1076.00" width="58.80" height="18" rx="3" fill="#fff"/><text x="2699.00" y="1089.00" text-anchor="middle">26.25′</text></g><g data-dimension-id="home-b.width" data-geometry-ref="d4.plan.shell-b" data-value-ft="40.5" data-collision-lane="0"><line class="witness" x1="896.00" y1="773.00" x2="896.00" y2="717.00"/><line class="witness" x1="1868.00" y1="773.00" x2="1868.00" y2="717.00"/><line class="dimension-line" x1="896.00" y1="722.00" x2="1868.00" y2="722.00"/><line class="tick" x1="892.00" y1="726.00" x2="900.00" y2="718.00"/><line class="tick" x1="1864.00" y1="726.00" x2="1872.00" y2="718.00"/><rect x="1356.50" y="713.00" width="51.00" height="18" rx="3" fill="#fff"/><text x="1382.00" y="726.00" text-anchor="middle">40.5′</text></g><g data-dimension-id="home-b.depth" data-geometry-ref="d4.plan.shell-b" data-value-ft="26.25" data-collision-lane="0"><line class="witness" x1="1871.00" y1="770.00" x2="1836.00" y2="770.00"/><line class="witness" x1="1871.00" y1="1400.00" x2="1836.00" y2="1400.00"/><line class="dimension-line" x1="1841.00" y1="770.00" x2="1841.00" y2="1400.00"/><line class="tick" x1="1837.00" y1="774.00" x2="1845.00" y2="766.00"/><line class="tick" x1="1837.00" y1="1404.00" x2="1845.00" y2="1396.00"/><rect x="1811.60" y="1076.00" width="58.80" height="18" rx="3" fill="#fff"/><text x="1841.00" y="1089.00" text-anchor="middle">26.25′</text></g><g data-dimension-id="home-b.south-wing" data-geometry-ref="d4.plan.shell-b" data-value-ft="22" data-collision-lane="0"><line class="witness" x1="1868.00" y1="1403.00" x2="1868.00" y2="1350.00"/><line class="witness" x1="1340.00" y1="1403.00" x2="1340.00" y2="1350.00"/><line class="dimension-line" x1="1868.00" y1="1355.00" x2="1340.00" y2="1355.00"/><line class="tick" x1="1864.00" y1="1359.00" x2="1872.00" y2="1351.00"/><line class="tick" x1="1336.00" y1="1359.00" x2="1344.00" y2="1351.00"/><rect x="1586.30" y="1346.00" width="35.40" height="18" rx="3" fill="#fff"/><text x="1604.00" y="1359.00" text-anchor="middle">22′</text></g><g data-dimension-id="home-b.reentrant" data-geometry-ref="d4.plan.shell-b" data-value-ft="9.25" data-collision-lane="0"><line class="witness" x1="1343.00" y1="1400.00" x2="1315.00" y2="1400.00"/><line class="witness" x1="1343.00" y1="1178.00" x2="1315.00" y2="1178.00"/><line class="dimension-line" x1="1320.00" y1="1400.00" x2="1320.00" y2="1178.00"/><line class="tick" x1="1316.00" y1="1404.00" x2="1324.00" y2="1396.00"/><line class="tick" x1="1316.00" y1="1182.00" x2="1324.00" y2="1174.00"/><rect x="1294.50" y="1280.00" width="51.00" height="18" rx="3" fill="#fff"/><text x="1320.00" y="1293.00" text-anchor="middle">9.25′</text></g></g><text x="175" y="2120" font-family="sans-serif" font-size="21">SOURCE-GEOMETRY STUDY · ZONING / AHJ / PROFESSIONAL REVIEW PENDING</text></svg>