<svg viewBox="0 0 987 411" role="img"><defs><marker id="arr" viewBox="0 0 10 10" refX="9" refY="5" markerWidth="6" markerHeight="6" orient="auto-start-reverse"><path d="M0 0L10 5L0 10z" fill="#5b6771"/></marker></defs>
<polygon class="lot" points="70.0,40.0 876.6,40.0 876.6,312.5 752.0,274.4 532.2,274.4 70.0,350.7"/>
<polygon class="envelope" points="206.3,67.3 767.6,67.3 767.6,222.2 760.2,219.9 527.8,219.9 206.3,273.0"/>
<text class="dim" x="473.3" y="12.75" text-anchor="middle">148.00′ DEPTH · REAR ← → PENNSYLVANIA</text>
<text class="dim" x="48.2" y="192.6" transform="rotate(-90 48.2 192.6)" text-anchor="middle">57.01′ NORTH / REAR</text>
<text class="sm" x="298.9" y="334.3" text-anchor="middle">85.98′</text>
<text class="sm" x="642.25" y="290.70000000000005" text-anchor="middle">40.33′</text>
<text class="sm" x="816.65" y="309.77500000000003" text-anchor="middle">23.90′</text>
<text class="front" x="892.95" y="176.25" transform="rotate(90 892.95 176.25)" text-anchor="middle">50.00′ PENNSYLVANIA · SOUTH / FRONT</text>
<path class="north-arrow" d="M26.4 192.6 L113.6 192.6 M26.4 192.6 L59.1 186.6 M26.4 192.6 L59.1 198.6"/>
<text class="sm" x="-6.299999999999997" y="196.6" text-anchor="middle">N</text>
<text class="sm" x="-6.299999999999997" y="208.6" text-anchor="middle">REAR</text>
<text class="sm" x="484.2" y="323.40000000000003" text-anchor="middle">WORKING SETBACK ENVELOPE · planning assumption</text>
<rect class="garage" x="97.25" y="67.25" width="119.9" height="119.9"/><text class="lab" x="157.2" y="127.2" text-anchor="middle">GARAGE A · 22×22</text><rect class="garage" x="97.25" y="198.05" width="119.9" height="119.9"/><text class="lab" x="157.2" y="258" text-anchor="middle">GARAGE B · 22×22</text><rect class="house" x="467.85" y="67.25" width="125.35000000000001" height="141.70000000000002"/><text class="lab" x="530.5250000000001" y="138.10000000000002" text-anchor="middle">HOME B</text><rect class="house" x="593.2" y="67.25" width="174.4" height="141.70000000000002"/><text class="lab" x="680.4" y="138.10000000000002" text-anchor="middle">HOME A</text><polyline class="drive" points="876.6,233.5 462.4,233.5 450.8,234.0 439.2,235.5 427.8,237.9 416.7,241.4 405.9,245.7 395.1,250.1 384.0,253.5 372.6,256.0 361.1,257.5 349.4,258.0 192.6,258.0"/><polyline class="center" points="876.6,233.5 462.4,233.5 450.8,234.0 439.2,235.5 427.8,237.9 416.7,241.4 405.9,245.7 395.1,250.1 384.0,253.5 372.6,256.0 361.1,257.5 349.4,258.0 192.6,258.0"/><polyline class="drive" points="876.6,233.5 462.4,233.5 451.1,233.0 439.8,231.6 428.8,229.3 417.9,226.0 407.4,221.9 397.2,216.9 387.5,211.0 378.3,204.4 369.7,197.1 361.7,189.0 354.4,180.3 347.2,171.7 339.2,163.6 330.6,156.3 321.4,149.6 311.7,143.8 301.5,138.8 291.0,134.7 280.1,131.4 269.0,129.1 257.8,127.7 246.5,127.2 192.6,127.2"/><polyline class="center" points="876.6,233.5 462.4,233.5 451.1,233.0 439.8,231.6 428.8,229.3 417.9,226.0 407.4,221.9 397.2,216.9 387.5,211.0 378.3,204.4 369.7,197.1 361.7,189.0 354.4,180.3 347.2,171.7 339.2,163.6 330.6,156.3 321.4,149.6 311.7,143.8 301.5,138.8 291.0,134.7 280.1,131.4 269.0,129.1 257.8,127.7 246.5,127.2 192.6,127.2"/></svg>